<mxfile host="app.diagrams.net" modified="2024-02-29T19:46:20.157Z" agent="Mozilla/5.0 (X11; Linux x86_64) AppleWebKit/537.36 (KHTML, like Gecko) Chrome/120.0.0.0 Safari/537.36" version="24.0.0" etag="mSGp37YYKSRBCMbWHFjJ" type="github">
  <diagram name="Seite-1" id="oA0uFsG8F0oeCvA24OTS">
    <mxGraphModel>
      <root>
        <mxCell id="0" />
        <mxCell id="1" parent="0" />
      </root>
    </mxGraphModel>
  </diagram>
</mxfile>
